<svg width="188" height="57" viewBox="0 0 188 57" fill="none" xmlns="http://www.w3.org/2000/svg">
<g clip-path="url(#clip0_164_1459)">
<path d="M96.8317 36.4268L79.7079 42.8471L93.8299 54.4667L96.8317 36.4268ZM46.1508 22.1729C46.1508 37.9488 52.5137 47.7513 61.2756 51.9787C69.953 56.1653 80.5844 54.6741 88.7122 48.7107L86.8384 46.1568C79.5231 51.5241 70.1342 52.7358 62.652 49.1258C55.2544 45.5567 49.3184 37.0634 49.3184 22.1729L46.1508 22.1729Z" fill="#005DD2"/>
<path fill-rule="evenodd" clip-rule="evenodd" d="M73.607 1.55079C72.6764 2.69815 71.5351 3.72167 70.1699 4.56608C72.2004 4.31854 74.2233 4.34658 76.1994 4.61405C76.9194 3.79781 77.5524 2.92631 78.1002 2.01339C83.373 2.97926 88.0407 5.41837 92.0216 9.32075L92.0291 9.32809L92.0366 9.33548C97.2677 14.5317 99.8944 20.9785 99.8944 28.4738C99.8944 36.0287 97.2529 42.5004 91.9753 47.6731L91.9678 47.6805L91.9602 47.6879C86.664 52.8098 80.1242 55.3626 72.5441 55.3626C64.9996 55.3626 58.5328 52.744 53.3597 47.5048C48.1725 42.3139 45.6091 35.7675 45.6091 28.1046C45.6091 20.7597 48.276 14.4223 53.5282 9.27446C58.7832 4.1238 65.2475 1.53882 72.7287 1.53882C73.023 1.53882 73.3158 1.54281 73.607 1.55079ZM72.5441 52.195C65.8061 52.195 60.1604 49.8875 55.6069 45.2725C51.0534 40.719 48.7767 34.9963 48.7767 28.1046C48.7767 21.6128 51.0996 16.0901 55.7454 11.5366C60.3912 6.98312 66.0523 4.70637 72.7287 4.70637C79.4358 4.70637 85.1277 6.9985 89.8043 11.5828C94.4193 16.167 96.7268 21.7974 96.7268 28.4738C96.7268 35.2117 94.4039 40.8574 89.7581 45.4109C85.0816 49.9336 79.3435 52.195 72.5441 52.195ZM62.5588 28.2892C62.5588 32.2014 63.5899 34.9133 65.3178 36.8006C67.1065 38.7192 69.4703 39.7512 72.7287 39.7512C76.0429 39.7512 78.4 38.7185 80.1462 36.8396C81.9163 34.9351 82.9447 32.277 82.9447 28.5199C82.9447 24.7635 81.9166 22.1057 80.1471 20.2012C78.3575 18.2774 75.9916 17.2424 72.7287 17.2424C69.5434 17.2424 67.2021 18.2667 65.4025 20.2012C63.572 22.169 62.5588 24.7701 62.5588 28.2892ZM59.3912 28.2892C59.3912 32.7811 60.5912 36.3347 62.991 38.9499C65.4523 41.5958 68.6982 42.9188 72.7287 42.9188C76.7899 42.9188 80.0358 41.6112 82.4664 38.996C84.897 36.3808 86.1123 32.8888 86.1123 28.5199C86.1123 24.151 84.897 20.659 82.4664 18.0438C80.005 15.3979 76.7591 14.0749 72.7287 14.0749C68.7598 14.0749 65.5446 15.3979 63.0833 18.0438C60.6219 20.6898 59.3912 24.1049 59.3912 28.2892Z" fill="#005DD2"/>
<path fill-rule="evenodd" clip-rule="evenodd" d="M2.32324 5.74443H11.0232V9.22441C12.6987 7.47153 14.1294 6.28576 15.3152 5.6671C16.5783 5.02266 18.1636 4.70044 20.0711 4.70044C24.3244 4.70044 27.6884 6.55643 30.1631 10.2684C32.8955 6.55643 36.5946 4.70044 41.2603 4.70044C47.6928 4.70044 51.6858 7.65887 53.2395 13.5757C51.1492 16.4126 50.0299 20.0129 49.3362 23.4667C48.6334 26.9661 48.7231 30.5785 49.5989 34.0387C50.4206 37.2851 51.9146 40.3203 53.9816 42.9489V43.4055H50.0773C49.9161 43.2067 49.7636 43.0187 49.619 42.8406L49.619 42.8405C47.9368 40.7673 47.3289 40.0182 46.7211 38.8025C45.9292 37.2187 45.9292 35.6349 45.9292 35.6349L45.243 32.204V22.487C45.243 18.8781 44.8048 16.3261 43.9283 14.831C43.0261 13.3102 41.5439 12.5497 39.4817 12.5497C37.0844 12.5497 35.3315 13.4519 34.2231 15.2564C33.1404 17.0608 32.5991 19.9608 32.5991 23.9563V43.4055H23.8605V22.603C23.8605 15.9008 21.9271 12.5497 18.0605 12.5497C15.6116 12.5497 13.8201 13.4648 12.6858 15.295C11.5774 17.1253 11.0232 20.0124 11.0232 23.9563V43.4055H2.32324V5.74443Z" fill="#005DD2"/>
<path d="M79.0645 2.43188C79.0645 2.43188 80.9032 1.51253 84.5806 1.51253C88.258 1.51253 92.8548 2.43188 94.6935 5.18995C96.5322 7.94801 95.3786 14.8416 93.7741 12.5448L79.0645 2.43188Z" fill="#005DD2"/>
<path fill-rule="evenodd" clip-rule="evenodd" d="M96.6008 30.0526C96.7957 27.5804 96.6059 25.0783 96.0247 22.6371C94.8783 17.8226 92.2659 13.4826 88.5478 10.2162C87.7821 9.54348 86.9772 8.9231 86.1388 8.35755L84.8787 5.74443H94.6226L104.367 26.895L114.072 5.74443H119.476H123.854H128.214V9.22441C131.256 6.20843 134.685 4.70044 138.5 4.70044C142.882 4.70044 146.297 6.07954 148.746 8.83775C150.86 11.1835 151.917 15.0115 151.917 20.3217V43.4055H143.178V22.371C143.178 18.659 142.663 16.0942 141.632 14.6764C140.626 13.2328 138.796 12.5111 136.141 12.5111C133.254 12.5111 131.205 13.4648 129.993 15.3724C128.807 17.2541 128.214 20.5408 128.214 25.2323V43.4055H119.476V14.7526L104.289 45.9962L96.6008 30.0526ZM152.642 5.74443H161.381V9.22441C164.423 6.20843 167.851 4.70044 171.666 4.70044C176.048 4.70044 179.464 6.07954 181.913 8.83775C184.027 11.1835 185.084 15.0115 185.084 20.3217V43.4055H176.345V22.371C176.345 18.659 175.829 16.0942 174.798 14.6764C173.793 13.2328 171.963 12.5111 169.308 12.5111C166.421 12.5111 164.371 13.4648 163.16 15.3724C161.974 17.2541 161.381 20.5408 161.381 25.2323V43.4055H152.642V5.74443ZM92.6521 8.71087L91.2833 8.76832L98.497 24.5244L99.6212 24.0097L92.6521 8.71087Z" fill="#005DD2"/>
</g>
<defs>
<clipPath id="clip0_164_1459">
<rect width="187.548" height="57" fill="white"/>
</clipPath>
</defs>
</svg>
